<?xml version="1.0" encoding="utf-8"?>
<svg xmlns="http://www.w3.org/2000/svg" width="44" height="44" viewBox="0 0 44 44">
  <g id="Group_17791" data-name="Group 17791" transform="translate(-827 -8865)">
    <circle id="Ellipse_195" data-name="Ellipse 195" cx="22" cy="22" r="22" transform="translate(827 8865)" fill="#fff" opacity="0.1"/>
    <path id="Path_126" data-name="Path 126" d="M2720.638,2138.321q0-2.62,0-5.24c0-.077-.023-.091-.095-.091-.672,0-1.344,0-2.015,0-.063,0-.079-.014-.079-.079q0-1.759,0-3.52c0-.067.022-.076.081-.076.676,0,1.353,0,2.028,0,.066,0,.078-.019.078-.08,0-.814,0-1.629.005-2.445a6.562,6.562,0,0,1,.206-1.571,4.141,4.141,0,0,1,.494-1.178,3.469,3.469,0,0,1,.584-.692,2.764,2.764,0,0,1,.564-.4,4.861,4.861,0,0,1,1.748-.548,8.123,8.123,0,0,1,1.1-.071q1.433,0,2.867,0c.063,0,.078.016.078.078q0,1.76,0,3.52c0,.066-.019.077-.079.077q-.918,0-1.835,0a2.488,2.488,0,0,0-.673.083.832.832,0,0,0-.656.758,4.05,4.05,0,0,0-.03.493c0,.634-.005,1.266-.012,1.9,0,.066.02.077.08.077q1.57,0,3.141,0c.075,0,.083.023.076.088-.055.5-.106,1-.159,1.5-.065.612-.132,1.223-.2,1.836a1.56,1.56,0,0,0-.016.185c0,.057-.024.069-.077.069l-2.767,0c-.067,0-.082.017-.082.082q0,5.24,0,10.48c0,.094,0,.094-.1.094q-2.091,0-4.187,0c-.07,0-.084-.018-.084-.086Q2720.64,2140.943,2720.638,2138.321Z" transform="translate(-1874.451 6753.666)" fill="#fff"/>
  </g>
</svg>
