<?xml version="1.0" encoding="utf-8"?>
<svg xmlns="http://www.w3.org/2000/svg" width="44" height="44" viewBox="0 0 44 44">
  <g id="Group_17793" data-name="Group 17793" transform="translate(-981 -8851)">
    <circle id="Ellipse_197" data-name="Ellipse 197" cx="22" cy="22" r="22" transform="translate(981 8851)" fill="#fff" opacity="0.1"/>
    <g id="Group_131" data-name="Group 131" transform="translate(993 8864)">
      <path id="Path_111" data-name="Path 111" d="M3659.808,2341.493a5.451,5.451,0,0,1,.521-.653,4.342,4.342,0,0,1,2.657-1.374,5.118,5.118,0,0,1,2.885.416,3.924,3.924,0,0,1,2.021,2.219,5.864,5.864,0,0,1,.356,1.51,9.834,9.834,0,0,1,.045,1.013q0,3.918,0,7.834c0,.115.014.1-.1.1h-3.73c-.115,0-.1.01-.1-.1q0-3.34,0-6.679a4.164,4.164,0,0,0-.244-1.5,1.836,1.836,0,0,0-1.062-1.135,2.325,2.325,0,0,0-.944-.144,2.483,2.483,0,0,0-1.074.256,2.087,2.087,0,0,0-1,1.174,3.667,3.667,0,0,0-.227,1.309q-.005,3.353,0,6.7c0,.125.02.11-.107.11h-3.584c-.1,0-.1,0-.1-.1v-12.557c0-.11-.013-.1.1-.1h3.592c.117,0,.1-.017.1.1q0,.749,0,1.5Z" transform="translate(-3649.165 -2333.436)" fill="#fff"/>
      <path id="Path_112" data-name="Path 112" d="M3547.607,2352.576v6.274c0,.11.015.1-.1.1q-1.878,0-3.759,0c-.079,0-.095-.022-.095-.1q0-6.281,0-12.562c0-.076.018-.1.095-.1q1.884,0,3.768,0c.075,0,.09.02.09.093Q3547.607,2349.434,3547.607,2352.576Z" transform="translate(-3543.279 -2339.823)" fill="#fff"/>
      <path id="Path_113" data-name="Path 113" d="M3537.123,2237.951a2.334,2.334,0,1,1,2.332,2.359A2.339,2.339,0,0,1,3537.123,2237.951Z" transform="translate(-3537.123 -2235.604)" fill="#fff"/>
    </g>
  </g>
</svg>
