<svg xmlns="http://www.w3.org/2000/svg" xmlns:xlink="http://www.w3.org/1999/xlink" version="1.1"
    x="0px" y="0px" viewBox="0 0 100 125" enable-background="new 0 0 100 100" xml:space="preserve"><path fill="#000000" d="M88.235,16.765h-5.883H17.647h-5.882c-0.975,0-1.765,0.79-1.765,1.765c0,0.975,0.79,1.765,1.765,1.765h4.118  v45.294c0,0.975,0.79,1.765,1.765,1.765h30.588v9.648c-5.821,0.224-10.294,1.523-10.294,3.099s4.473,2.876,10.294,3.099v0.037h3.529  v-0.037c5.821-0.223,10.294-1.523,10.294-3.099s-4.473-2.875-10.294-3.099v-9.648h30.588c0.975,0,1.765-0.79,1.765-1.765V20.294  h4.118c0.975,0,1.765-0.79,1.765-1.765C90,17.555,89.21,16.765,88.235,16.765z M80.588,63.823H19.412V20.294h61.176V63.823z"/><path fill="#000000" d="M24.706,46.176h17.647c0.975,0,1.765-0.79,1.765-1.765V26.765c0-0.975-0.79-1.765-1.765-1.765H24.706  c-0.975,0-1.765,0.79-1.765,1.765v17.647C22.941,45.387,23.731,46.176,24.706,46.176z M26.471,28.529h14.118v14.118H26.471V28.529z"/><path fill="#000000" d="M48.235,28.529h27.059c0.975,0,1.765-0.79,1.765-1.765c0-0.975-0.79-1.765-1.765-1.765H48.235  c-0.975,0-1.765,0.79-1.765,1.765C46.471,27.74,47.26,28.529,48.235,28.529z"/><path fill="#000000" d="M48.235,37.353h27.059c0.975,0,1.765-0.79,1.765-1.765c0-0.975-0.79-1.765-1.765-1.765H48.235  c-0.975,0-1.765,0.79-1.765,1.765C46.471,36.563,47.26,37.353,48.235,37.353z"/><path fill="#000000" d="M48.235,46.176h27.059c0.975,0,1.765-0.79,1.765-1.765c0-0.975-0.79-1.765-1.765-1.765H48.235  c-0.975,0-1.765,0.79-1.765,1.765C46.471,45.387,47.26,46.176,48.235,46.176z"/></svg>